<svg id="visual" viewBox="0 0 900 600" width="900" height="600" xmlns="http://www.w3.org/2000/svg" xmlns:xlink="http://www.w3.org/1999/xlink" version="1.1"><rect x="0" y="0" width="900" height="600" fill="#242323"></rect><path d="M491 0L456 0L456 86L447 86L447 171L528 171L528 257L502 257L502 343L435 343L435 429L483 429L483 514L456 514L456 600L0 600L0 514L0 514L0 429L0 429L0 343L0 343L0 257L0 257L0 171L0 171L0 86L0 86L0 0L0 0Z" fill="#299bf3"></path><path d="M257 0L315 0L315 86L227 86L227 171L358 171L358 257L303 257L303 343L225 343L225 429L224 429L224 514L273 514L273 600L0 600L0 514L0 514L0 429L0 429L0 343L0 343L0 257L0 257L0 171L0 171L0 86L0 86L0 0L0 0Z" fill="#44a7f5"></path><path d="M180 0L123 0L123 86L101 86L101 171L223 171L223 257L142 257L142 343L174 343L174 429L179 429L179 514L107 514L107 600L0 600L0 514L0 514L0 429L0 429L0 343L0 343L0 257L0 257L0 171L0 171L0 86L0 86L0 0L0 0Z" fill="#5cb3f6"></path></svg>